{"asset":{"generator":"Khronos glTF Blender I/O v5.2.40","version":"2.0"},"scene":0,"scenes":[{"name":"Scene","nodes":[0,1,2,3,4,5,6,7,8,9,10,11,12,13,14,15,16,17,18,19,20,21,22,23,24,25,26,27,28,29]}],"nodes":[{"mesh":0,"name":"Oak0_L0_Bark"},{"mesh":1,"name":"Oak0_L0_Foliage"},{"mesh":2,"name":"Oak0_L1_Bark"},{"mesh":3,"name":"Oak0_L1_Foliage"},{"mesh":4,"name":"Oak0_L2_Bark"},{"mesh":5,"name":"Oak0_L2_Foliage"},{"mesh":6,"name":"Oak0_L4_Bark"},{"mesh":7,"name":"Oak0_L4_Foliage"},{"mesh":8,"name":"Oak0_L5_Bark"},{"mesh":9,"name":"Oak0_L5_Foliage"},{"mesh":10,"name":"Oak1_L0_Bark"},{"mesh":11,"name":"Oak1_L0_Foliage"},{"mesh":12,"name":"Oak1_L1_Bark"},{"mesh":13,"name":"Oak1_L1_Foliage"},{"mesh":14,"name":"Oak1_L2_Bark"},{"mesh":15,"name":"Oak1_L2_Foliage"},{"mesh":16,"name":"Oak1_L4_Bark"},{"mesh":17,"name":"Oak1_L4_Foliage"},{"mesh":18,"name":"Oak1_L5_Bark"},{"mesh":19,"name":"Oak1_L5_Foliage"},{"mesh":20,"name":"Oak2_L0_Bark"},{"mesh":21,"name":"Oak2_L0_Foliage"},{"mesh":22,"name":"Oak2_L1_Bark"},{"mesh":23,"name":"Oak2_L1_Foliage"},{"mesh":24,"name":"Oak2_L2_Bark"},{"mesh":25,"name":"Oak2_L2_Foliage"},{"mesh":26,"name":"Oak2_L4_Bark"},{"mesh":27,"name":"Oak2_L4_Foliage"},{"mesh":28,"name":"Oak2_L5_Bark"},{"mesh":29,"name":"Oak2_L5_Foliage"}],"materials":[{"doubleSided":true,"name":"Oak Bark","normalTexture":{"index":0},"pbrMetallicRoughness":{"baseColorTexture":{"index":1},"metallicFactor":0,"metallicRoughnessTexture":{"index":2}}},{"alphaMode":"BLEND","doubleSided":true,"name":"Oak Foliage","normalTexture":{"index":3},"pbrMetallicRoughness":{"baseColorTexture":{"index":4},"metallicFactor":0,"metallicRoughnessTexture":{"index":5}}}],"meshes":[{"name":"Oak0_L0_Bark","primitives":[{"attributes":{"POSITION":0,"NORMAL":1,"TEXCOORD_0":2,"COLOR_0":3,"COLOR_1":4},"indices":5,"material":0}]},{"name":"Oak0_L0_Foliage","primitives":[{"attributes":{"POSITION":6,"NORMAL":7,"TEXCOORD_0":8,"COLOR_0":9,"COLOR_1":10},"indices":11,"material":1}]},{"name":"Oak0_L1_Bark","primitives":[{"attributes":{"POSITION":12,"NORMAL":13,"TEXCOORD_0":14,"COLOR_0":15,"COLOR_1":16},"indices":5,"material":0}]},{"name":"Oak0_L1_Foliage","primitives":[{"attributes":{"POSITION":17,"NORMAL":18,"TEXCOORD_0":19,"COLOR_0":20,"COLOR_1":21},"indices":22,"material":1}]},{"name":"Oak0_L2_Bark","primitives":[{"attributes":{"POSITION":23,"NORMAL":24,"TEXCOORD_0":25,"COLOR_0":26,"COLOR_1":27},"indices":28,"material":0}]},{"name":"Oak0_L2_Foliage","primitives":[{"attributes":{"POSITION":29,"NORMAL":30,"TEXCOORD_0":31,"COLOR_0":32,"COLOR_1":33},"indices":34,"material":1}]},{"name":"Oak0_L4_Bark","primitives":[{"attributes":{"POSITION":35,"NORMAL":36,"TEXCOORD_0":37,"COLOR_0":38,"COLOR_1":39},"indices":40,"material":0}]},{"name":"Oak0_L4_Foliage","primitives":[{"attributes":{"POSITION":41,"NORMAL":42,"TEXCOORD_0":43,"COLOR_0":44,"COLOR_1":45},"indices":46,"material":1}]},{"name":"Oak0_L5_Bark","primitives":[{"attributes":{"POSITION":47,"NORMAL":48,"TEXCOORD_0":49,"COLOR_0":50,"COLOR_1":51},"indices":52,"material":0}]},{"name":"Oak0_L5_Foliage","primitives":[{"attributes":{"POSITION":53,"NORMAL":54,"TEXCOORD_0":55,"COLOR_0":56,"COLOR_1":57},"indices":58,"material":1}]},{"name":"Oak1_L0_Bark","primitives":[{"attributes":{"POSITION":59,"NORMAL":60,"TEXCOORD_0":61,"COLOR_0":62,"COLOR_1":63},"indices":64,"material":0}]},{"name":"Oak1_L0_Foliage","primitives":[{"attributes":{"POSITION":65,"NORMAL":66,"TEXCOORD_0":67,"COLOR_0":68,"COLOR_1":69},"indices":11,"material":1}]},{"name":"Oak1_L1_Bark","primitives":[{"attributes":{"POSITION":70,"NORMAL":71,"TEXCOORD_0":72,"COLOR_0":73,"COLOR_1":74},"indices":64,"material":0}]},{"name":"Oak1_L1_Foliage","primitives":[{"attributes":{"POSITION":75,"NORMAL":76,"TEXCOORD_0":77,"COLOR_0":78,"COLOR_1":79},"indices":22,"material":1}]},{"name":"Oak1_L2_Bark","primitives":[{"attributes":{"POSITION":80,"NORMAL":81,"TEXCOORD_0":82,"COLOR_0":83,"COLOR_1":84},"indices":85,"material":0}]},{"name":"Oak1_L2_Foliage","primitives":[{"attributes":{"POSITION":86,"NORMAL":87,"TEXCOORD_0":88,"COLOR_0":89,"COLOR_1":90},"indices":34,"material":1}]},{"name":"Oak1_L4_Bark","primitives":[{"attributes":{"POSITION":91,"NORMAL":92,"TEXCOORD_0":93,"COLOR_0":94,"COLOR_1":95},"indices":96,"material":0}]},{"name":"Oak1_L4_Foliage","primitives":[{"attributes":{"POSITION":97,"NORMAL":98,"TEXCOORD_0":99,"COLOR_0":100,"COLOR_1":101},"indices":46,"material":1}]},{"name":"Oak1_L5_Bark","primitives":[{"attributes":{"POSITION":102,"NORMAL":103,"TEXCOORD_0":104,"COLOR_0":105,"COLOR_1":106},"indices":107,"material":0}]},{"name":"Oak1_L5_Foliage","primitives":[{"attributes":{"POSITION":108,"NORMAL":109,"TEXCOORD_0":110,"COLOR_0":111,"COLOR_1":112},"indices":58,"material":1}]},{"name":"Oak2_L0_Bark","primitives":[{"attributes":{"POSITION":113,"NORMAL":114,"TEXCOORD_0":115,"COLOR_0":116,"COLOR_1":117},"indices":118,"material":0}]},{"name":"Oak2_L0_Foliage","primitives":[{"attributes":{"POSITION":119,"NORMAL":120,"TEXCOORD_0":121,"COLOR_0":122,"COLOR_1":123},"indices":11,"material":1}]},{"name":"Oak2_L1_Bark","primitives":[{"attributes":{"POSITION":124,"NORMAL":125,"TEXCOORD_0":126,"COLOR_0":127,"COLOR_1":128},"indices":118,"material":0}]},{"name":"Oak2_L1_Foliage","primitives":[{"attributes":{"POSITION":129,"NORMAL":130,"TEXCOORD_0":131,"COLOR_0":132,"COLOR_1":133},"indices":22,"material":1}]},{"name":"Oak2_L2_Bark","primitives":[{"attributes":{"POSITION":134,"NORMAL":135,"TEXCOORD_0":136,"COLOR_0":137,"COLOR_1":138},"indices":139,"material":0}]},{"name":"Oak2_L2_Foliage","primitives":[{"attributes":{"POSITION":140,"NORMAL":141,"TEXCOORD_0":142,"COLOR_0":143,"COLOR_1":144},"indices":34,"material":1}]},{"name":"Oak2_L4_Bark","primitives":[{"attributes":{"POSITION":145,"NORMAL":146,"TEXCOORD_0":147,"COLOR_0":148,"COLOR_1":149},"indices":150,"material":0}]},{"name":"Oak2_L4_Foliage","primitives":[{"attributes":{"POSITION":151,"NORMAL":152,"TEXCOORD_0":153,"COLOR_0":154,"COLOR_1":155},"indices":46,"material":1}]},{"name":"Oak2_L5_Bark","primitives":[{"attributes":{"POSITION":156,"NORMAL":157,"TEXCOORD_0":158,"COLOR_0":159,"COLOR_1":160},"indices":161,"material":0}]},{"name":"Oak2_L5_Foliage","primitives":[{"attributes":{"POSITION":162,"NORMAL":163,"TEXCOORD_0":164,"COLOR_0":165,"COLOR_1":166},"indices":58,"material":1}]}],"textures":[{"sampler":0,"source":0},{"sampler":0,"source":1},{"sampler":0,"source":2},{"sampler":0,"source":3},{"sampler":0,"source":4},{"sampler":0,"source":5}],"images":[{"mimeType":"image/jpeg","name":"oak-bark-normal","uri":"bark-normal.jpg"},{"mimeType":"image/jpeg","name":"oak-bark","uri":"bark.jpg"},{"mimeType":"image/png","name":"oak-bark-mask","uri":"bark-mask.png"},{"mimeType":"image/png","name":"oak-leaf-normal","uri":"foliage-normal.png"},{"mimeType":"image/png","name":"foliage","uri":"foliage.png"},{"mimeType":"image/png","name":"oak-leaf-mask","uri":"foliage-mask.png"}],"accessors":[{"bufferView":0,"componentType":5126,"count":1758,"max":[9.04266357421875,18.436153411865234,8.011192321777344],"min":[-9.036321640014648,0,-7.850327491760254],"type":"VEC3"},{"bufferView":1,"componentType":5126,"count":1758,"type":"VEC3"},{"bufferView":2,"componentType":5126,"count":1758,"type":"VEC2"},{"bufferView":3,"componentType":5121,"count":1758,"normalized":true,"type":"VEC4"},{"bufferView":4,"componentType":5123,"count":1758,"normalized":true,"type":"VEC4"},{"bufferView":5,"componentType":5123,"count":7320,"type":"SCALAR"},{"bufferView":6,"componentType":5126,"count":26400,"max":[11.53799819946289,20.651063919067383,9.881896018981934],"min":[-10.917773246765137,5.886139392852783,-10.128727912902832],"type":"VEC3"},{"bufferView":7,"componentType":5126,"count":26400,"type":"VEC3"},{"bufferView":8,"componentType":5126,"count":26400,"type":"VEC2"},{"bufferView":9,"componentType":5121,"count":26400,"normalized":true,"type":"VEC4"},{"bufferView":10,"componentType":5123,"count":26400,"normalized":true,"type":"VEC4"},{"bufferView":11,"componentType":5123,"count":63360,"type":"SCALAR"},{"bufferView":12,"componentType":5126,"count":1758,"max":[9.04266357421875,18.436153411865234,8.011192321777344],"min":[-9.036321640014648,0,-7.850327491760254],"type":"VEC3"},{"bufferView":13,"componentType":5126,"count":1758,"type":"VEC3"},{"bufferView":14,"componentType":5126,"count":1758,"type":"VEC2"},{"bufferView":15,"componentType":5121,"count":1758,"normalized":true,"type":"VEC4"},{"bufferView":16,"componentType":5123,"count":1758,"normalized":true,"type":"VEC4"},{"bufferView":17,"componentType":5126,"count":9600,"max":[11.434101104736328,20.99935531616211,9.969358444213867],"min":[-10.97832202911377,5.560892105102539,-10.067090034484863],"type":"VEC3"},{"bufferView":18,"componentType":5126,"count":9600,"type":"VEC3"},{"bufferView":19,"componentType":5126,"count":9600,"type":"VEC2"},{"bufferView":20,"componentType":5121,"count":9600,"normalized":true,"type":"VEC4"},{"bufferView":21,"componentType":5123,"count":9600,"normalized":true,"type":"VEC4"},{"bufferView":22,"componentType":5123,"count":23040,"type":"SCALAR"},{"bufferView":23,"componentType":5126,"count":558,"max":[9.04266357421875,17.777284622192383,8.011192321777344],"min":[-9.036321640014648,0,-7.850327491760254],"type":"VEC3"},{"bufferView":24,"componentType":5126,"count":558,"type":"VEC3"},{"bufferView":25,"componentType":5126,"count":558,"type":"VEC2"},{"bufferView":26,"componentType":5121,"count":558,"normalized":true,"type":"VEC4"},{"bufferView":27,"componentType":5123,"count":558,"normalized":true,"type":"VEC4"},{"bufferView":28,"componentType":5123,"count":2640,"type":"SCALAR"},{"bufferView":29,"componentType":5126,"count":3000,"max":[11.707844734191895,21,10.04684829711914],"min":[-10.841601371765137,4.9446330070495605,-10.36425495147705],"type":"VEC3"},{"bufferView":30,"componentType":5126,"count":3000,"type":"VEC3"},{"bufferView":31,"componentType":5126,"count":3000,"type":"VEC2"},{"bufferView":32,"componentType":5121,"count":3000,"normalized":true,"type":"VEC4"},{"bufferView":33,"componentType":5123,"count":3000,"normalized":true,"type":"VEC4"},{"bufferView":34,"componentType":5123,"count":7200,"type":"SCALAR"},{"bufferView":35,"componentType":5126,"count":299,"max":[9.029074668884277,17.77055549621582,7.9977827072143555],"min":[-9.019584655761719,0,-7.836897373199463],"type":"VEC3"},{"bufferView":36,"componentType":5126,"count":299,"type":"VEC3"},{"bufferView":37,"componentType":5126,"count":299,"type":"VEC2"},{"bufferView":38,"componentType":5121,"count":299,"normalized":true,"type":"VEC4"},{"bufferView":39,"componentType":5123,"count":299,"normalized":true,"type":"VEC4"},{"bufferView":40,"componentType":5123,"count":1260,"type":"SCALAR"},{"bufferView":41,"componentType":5126,"count":1200,"max":[11.560877799987793,21,10.384156227111816],"min":[-11.131447792053223,4.473880290985107,-9.729248046875],"type":"VEC3"},{"bufferView":42,"componentType":5126,"count":1200,"type":"VEC3"},{"bufferView":43,"componentType":5126,"count":1200,"type":"VEC2"},{"bufferView":44,"componentType":5121,"count":1200,"normalized":true,"type":"VEC4"},{"bufferView":45,"componentType":5123,"count":1200,"normalized":true,"type":"VEC4"},{"bufferView":46,"componentType":5123,"count":2880,"type":"SCALAR"},{"bufferView":47,"componentType":5126,"count":468,"max":[9.04509449005127,17.77599334716797,8.007091522216797],"min":[-9.031829833984375,0,-7.849754333496094],"type":"VEC3"},{"bufferView":48,"componentType":5126,"count":468,"type":"VEC3"},{"bufferView":49,"componentType":5126,"count":468,"type":"VEC2"},{"bufferView":50,"componentType":5121,"count":468,"normalized":true,"type":"VEC4"},{"bufferView":51,"componentType":5123,"count":468,"normalized":true,"type":"VEC4"},{"bufferView":52,"componentType":5123,"count":2100,"type":"SCALAR"},{"bufferView":53,"componentType":5126,"count":1800,"max":[11.560877799987793,21,10.384156227111816],"min":[-11.131447792053223,4.473880290985107,-10.758707046508789],"type":"VEC3"},{"bufferView":54,"componentType":5126,"count":1800,"type":"VEC3"},{"bufferView":55,"componentType":5126,"count":1800,"type":"VEC2"},{"bufferView":56,"componentType":5121,"count":1800,"normalized":true,"type":"VEC4"},{"bufferView":57,"componentType":5123,"count":1800,"normalized":true,"type":"VEC4"},{"bufferView":58,"componentType":5123,"count":4320,"type":"SCALAR"},{"bufferView":59,"componentType":5126,"count":1758,"max":[8.938632011413574,18.61612319946289,8.12784194946289],"min":[-8.95744800567627,0,-7.784823417663574],"type":"VEC3"},{"bufferView":60,"componentType":5126,"count":1758,"type":"VEC3"},{"bufferView":61,"componentType":5126,"count":1758,"type":"VEC2"},{"bufferView":62,"componentType":5121,"count":1758,"normalized":true,"type":"VEC4"},{"bufferView":63,"componentType":5123,"count":1758,"normalized":true,"type":"VEC4"},{"bufferView":64,"componentType":5123,"count":7320,"type":"SCALAR"},{"bufferView":65,"componentType":5126,"count":26400,"max":[11.518567085266113,20.918777465820312,10.438579559326172],"min":[-11.152432441711426,5.905237674713135,-10.012454986572266],"type":"VEC3"},{"bufferView":66,"componentType":5126,"count":26400,"type":"VEC3"},{"bufferView":67,"componentType":5126,"count":26400,"type":"VEC2"},{"bufferView":68,"componentType":5121,"count":26400,"normalized":true,"type":"VEC4"},{"bufferView":69,"componentType":5123,"count":26400,"normalized":true,"type":"VEC4"},{"bufferView":70,"componentType":5126,"count":1758,"max":[8.938632011413574,18.61612319946289,8.12784194946289],"min":[-8.95744800567627,0,-7.784823417663574],"type":"VEC3"},{"bufferView":71,"componentType":5126,"count":1758,"type":"VEC3"},{"bufferView":72,"componentType":5126,"count":1758,"type":"VEC2"},{"bufferView":73,"componentType":5121,"count":1758,"normalized":true,"type":"VEC4"},{"bufferView":74,"componentType":5123,"count":1758,"normalized":true,"type":"VEC4"},{"bufferView":75,"componentType":5126,"count":9600,"max":[11.55821418762207,21,10.674053192138672],"min":[-11.107454299926758,5.566012382507324,-10.286834716796875],"type":"VEC3"},{"bufferView":76,"componentType":5126,"count":9600,"type":"VEC3"},{"bufferView":77,"componentType":5126,"count":9600,"type":"VEC2"},{"bufferView":78,"componentType":5121,"count":9600,"normalized":true,"type":"VEC4"},{"bufferView":79,"componentType":5123,"count":9600,"normalized":true,"type":"VEC4"},{"bufferView":80,"componentType":5126,"count":558,"max":[8.938632011413574,17.77783203125,8.12784194946289],"min":[-8.95744800567627,0,-7.784823417663574],"type":"VEC3"},{"bufferView":81,"componentType":5126,"count":558,"type":"VEC3"},{"bufferView":82,"componentType":5126,"count":558,"type":"VEC2"},{"bufferView":83,"componentType":5121,"count":558,"normalized":true,"type":"VEC4"},{"bufferView":84,"componentType":5123,"count":558,"normalized":true,"type":"VEC4"},{"bufferView":85,"componentType":5123,"count":2640,"type":"SCALAR"},{"bufferView":86,"componentType":5126,"count":3000,"max":[11.341148376464844,21,11.024968147277832],"min":[-11.134594917297363,5.041172027587891,-9.8872709274292],"type":"VEC3"},{"bufferView":87,"componentType":5126,"count":3000,"type":"VEC3"},{"bufferView":88,"componentType":5126,"count":3000,"type":"VEC2"},{"bufferView":89,"componentType":5121,"count":3000,"normalized":true,"type":"VEC4"},{"bufferView":90,"componentType":5123,"count":3000,"normalized":true,"type":"VEC4"},{"bufferView":91,"componentType":5126,"count":298,"max":[8.922613143920898,17.77048110961914,8.114131927490234],"min":[-8.940589904785156,0,-7.770399570465088],"type":"VEC3"},{"bufferView":92,"componentType":5126,"count":298,"type":"VEC3"},{"bufferView":93,"componentType":5126,"count":298,"type":"VEC2"},{"bufferView":94,"componentType":5121,"count":298,"normalized":true,"type":"VEC4"},{"bufferView":95,"componentType":5123,"count":298,"normalized":true,"type":"VEC4"},{"bufferView":96,"componentType":5123,"count":1257,"type":"SCALAR"},{"bufferView":97,"componentType":5126,"count":1200,"max":[11.312597274780273,21,11.40428352355957],"min":[-11.282176971435547,4.491738319396973,-10.252038955688477],"type":"VEC3"},{"bufferView":98,"componentType":5126,"count":1200,"type":"VEC3"},{"bufferView":99,"componentType":5126,"count":1200,"type":"VEC2"},{"bufferView":100,"componentType":5121,"count":1200,"normalized":true,"type":"VEC4"},{"bufferView":101,"componentType":5123,"count":1200,"normalized":true,"type":"VEC4"},{"bufferView":102,"componentType":5126,"count":468,"max":[8.939438819885254,17.776561737060547,8.122729301452637],"min":[-8.954370498657227,0,-7.784536838531494],"type":"VEC3"},{"bufferView":103,"componentType":5126,"count":468,"type":"VEC3"},{"bufferView":104,"componentType":5126,"count":468,"type":"VEC2"},{"bufferView":105,"componentType":5121,"count":468,"normalized":true,"type":"VEC4"},{"bufferView":106,"componentType":5123,"count":468,"normalized":true,"type":"VEC4"},{"bufferView":107,"componentType":5123,"count":2100,"type":"SCALAR"},{"bufferView":108,"componentType":5126,"count":1800,"max":[11.312597274780273,21,11.40428352355957],"min":[-11.517165184020996,4.491738319396973,-10.252038955688477],"type":"VEC3"},{"bufferView":109,"componentType":5126,"count":1800,"type":"VEC3"},{"bufferView":110,"componentType":5126,"count":1800,"type":"VEC2"},{"bufferView":111,"componentType":5121,"count":1800,"normalized":true,"type":"VEC4"},{"bufferView":112,"componentType":5123,"count":1800,"normalized":true,"type":"VEC4"},{"bufferView":113,"componentType":5126,"count":1758,"max":[9.039109230041504,18.628524780273438,8.260934829711914],"min":[-8.870315551757812,0,-7.926405906677246],"type":"VEC3"},{"bufferView":114,"componentType":5126,"count":1758,"type":"VEC3"},{"bufferView":115,"componentType":5126,"count":1758,"type":"VEC2"},{"bufferView":116,"componentType":5121,"count":1758,"normalized":true,"type":"VEC4"},{"bufferView":117,"componentType":5123,"count":1758,"normalized":true,"type":"VEC4"},{"bufferView":118,"componentType":5123,"count":7320,"type":"SCALAR"},{"bufferView":119,"componentType":5126,"count":26400,"max":[11.485936164855957,21,10.469292640686035],"min":[-10.893200874328613,5.786645889282227,-10.144120216369629],"type":"VEC3"},{"bufferView":120,"componentType":5126,"count":26400,"type":"VEC3"},{"bufferView":121,"componentType":5126,"count":26400,"type":"VEC2"},{"bufferView":122,"componentType":5121,"count":26400,"normalized":true,"type":"VEC4"},{"bufferView":123,"componentType":5123,"count":26400,"normalized":true,"type":"VEC4"},{"bufferView":124,"componentType":5126,"count":1758,"max":[9.039109230041504,18.628524780273438,8.260934829711914],"min":[-8.870315551757812,0,-7.926405906677246],"type":"VEC3"},{"bufferView":125,"componentType":5126,"count":1758,"type":"VEC3"},{"bufferView":126,"componentType":5126,"count":1758,"type":"VEC2"},{"bufferView":127,"componentType":5121,"count":1758,"normalized":true,"type":"VEC4"},{"bufferView":128,"componentType":5123,"count":1758,"normalized":true,"type":"VEC4"},{"bufferView":129,"componentType":5126,"count":9600,"max":[11.420140266418457,21,10.737099647521973],"min":[-10.920238494873047,5.8055100440979,-10.37061882019043],"type":"VEC3"},{"bufferView":130,"componentType":5126,"count":9600,"type":"VEC3"},{"bufferView":131,"componentType":5126,"count":9600,"type":"VEC2"},{"bufferView":132,"componentType":5121,"count":9600,"normalized":true,"type":"VEC4"},{"bufferView":133,"componentType":5123,"count":9600,"normalized":true,"type":"VEC4"},{"bufferView":134,"componentType":5126,"count":558,"max":[9.039109230041504,17.77629852294922,8.260934829711914],"min":[-8.870315551757812,0,-7.926405906677246],"type":"VEC3"},{"bufferView":135,"componentType":5126,"count":558,"type":"VEC3"},{"bufferView":136,"componentType":5126,"count":558,"type":"VEC2"},{"bufferView":137,"componentType":5121,"count":558,"normalized":true,"type":"VEC4"},{"bufferView":138,"componentType":5123,"count":558,"normalized":true,"type":"VEC4"},{"bufferView":139,"componentType":5123,"count":2640,"type":"SCALAR"},{"bufferView":140,"componentType":5126,"count":3000,"max":[11.741786003112793,21,11.244521141052246],"min":[-11.549251556396484,5.481993675231934,-10.478829383850098],"type":"VEC3"},{"bufferView":141,"componentType":5126,"count":3000,"type":"VEC3"},{"bufferView":142,"componentType":5126,"count":3000,"type":"VEC2"},{"bufferView":143,"componentType":5121,"count":3000,"normalized":true,"type":"VEC4"},{"bufferView":144,"componentType":5123,"count":3000,"normalized":true,"type":"VEC4"},{"bufferView":145,"componentType":5126,"count":299,"max":[9.025749206542969,17.770483016967773,8.247625350952148],"min":[-8.85306167602539,0,-7.911493301391602],"type":"VEC3"},{"bufferView":146,"componentType":5126,"count":299,"type":"VEC3"},{"bufferView":147,"componentType":5126,"count":299,"type":"VEC2"},{"bufferView":148,"componentType":5121,"count":299,"normalized":true,"type":"VEC4"},{"bufferView":149,"componentType":5123,"count":299,"normalized":true,"type":"VEC4"},{"bufferView":150,"componentType":5123,"count":1260,"type":"SCALAR"},{"bufferView":151,"componentType":5126,"count":1200,"max":[10.957903861999512,21,11.632134437561035],"min":[-10.886112213134766,5.172957420349121,-10.83176040649414],"type":"VEC3"},{"bufferView":152,"componentType":5126,"count":1200,"type":"VEC3"},{"bufferView":153,"componentType":5126,"count":1200,"type":"VEC2"},{"bufferView":154,"componentType":5121,"count":1200,"normalized":true,"type":"VEC4"},{"bufferView":155,"componentType":5123,"count":1200,"normalized":true,"type":"VEC4"},{"bufferView":156,"componentType":5126,"count":468,"max":[9.041692733764648,17.775423049926758,8.248347282409668],"min":[-8.865080833435059,0,-7.926000595092773],"type":"VEC3"},{"bufferView":157,"componentType":5126,"count":468,"type":"VEC3"},{"bufferView":158,"componentType":5126,"count":468,"type":"VEC2"},{"bufferView":159,"componentType":5121,"count":468,"normalized":true,"type":"VEC4"},{"bufferView":160,"componentType":5123,"count":468,"normalized":true,"type":"VEC4"},{"bufferView":161,"componentType":5123,"count":2100,"type":"SCALAR"},{"bufferView":162,"componentType":5126,"count":1800,"max":[10.957903861999512,21,11.632134437561035],"min":[-11.612847328186035,5.068645477294922,-10.83176040649414],"type":"VEC3"},{"bufferView":163,"componentType":5126,"count":1800,"type":"VEC3"},{"bufferView":164,"componentType":5126,"count":1800,"type":"VEC2"},{"bufferView":165,"componentType":5121,"count":1800,"normalized":true,"type":"VEC4"},{"bufferView":166,"componentType":5123,"count":1800,"normalized":true,"type":"VEC4"}],"bufferViews":[{"buffer":0,"byteLength":21096,"byteOffset":0,"target":34962},{"buffer":0,"byteLength":21096,"byteOffset":21096,"target":34962},{"buffer":0,"byteLength":14064,"byteOffset":42192,"target":34962},{"buffer":0,"byteLength":7032,"byteOffset":56256,"target":34962},{"buffer":0,"byteLength":14064,"byteOffset":63288,"target":34962},{"buffer":0,"byteLength":14640,"byteOffset":77352,"target":34963},{"buffer":0,"byteLength":316800,"byteOffset":91992,"target":34962},{"buffer":0,"byteLength":316800,"byteOffset":408792,"target":34962},{"buffer":0,"byteLength":211200,"byteOffset":725592,"target":34962},{"buffer":0,"byteLength":105600,"byteOffset":936792,"target":34962},{"buffer":0,"byteLength":211200,"byteOffset":1042392,"target":34962},{"buffer":0,"byteLength":126720,"byteOffset":1253592,"target":34963},{"buffer":0,"byteLength":21096,"byteOffset":1380312,"target":34962},{"buffer":0,"byteLength":21096,"byteOffset":1401408,"target":34962},{"buffer":0,"byteLength":14064,"byteOffset":1422504,"target":34962},{"buffer":0,"byteLength":7032,"byteOffset":1436568,"target":34962},{"buffer":0,"byteLength":14064,"byteOffset":1443600,"target":34962},{"buffer":0,"byteLength":115200,"byteOffset":1457664,"target":34962},{"buffer":0,"byteLength":115200,"byteOffset":1572864,"target":34962},{"buffer":0,"byteLength":76800,"byteOffset":1688064,"target":34962},{"buffer":0,"byteLength":38400,"byteOffset":1764864,"target":34962},{"buffer":0,"byteLength":76800,"byteOffset":1803264,"target":34962},{"buffer":0,"byteLength":46080,"byteOffset":1880064,"target":34963},{"buffer":0,"byteLength":6696,"byteOffset":1926144,"target":34962},{"buffer":0,"byteLength":6696,"byteOffset":1932840,"target":34962},{"buffer":0,"byteLength":4464,"byteOffset":1939536,"target":34962},{"buffer":0,"byteLength":2232,"byteOffset":1944000,"target":34962},{"buffer":0,"byteLength":4464,"byteOffset":1946232,"target":34962},{"buffer":0,"byteLength":5280,"byteOffset":1950696,"target":34963},{"buffer":0,"byteLength":36000,"byteOffset":1955976,"target":34962},{"buffer":0,"byteLength":36000,"byteOffset":1991976,"target":34962},{"buffer":0,"byteLength":24000,"byteOffset":2027976,"target":34962},{"buffer":0,"byteLength":12000,"byteOffset":2051976,"target":34962},{"buffer":0,"byteLength":24000,"byteOffset":2063976,"target":34962},{"buffer":0,"byteLength":14400,"byteOffset":2087976,"target":34963},{"buffer":0,"byteLength":3588,"byteOffset":2102376,"target":34962},{"buffer":0,"byteLength":3588,"byteOffset":2105964,"target":34962},{"buffer":0,"byteLength":2392,"byteOffset":2109552,"target":34962},{"buffer":0,"byteLength":1196,"byteOffset":2111944,"target":34962},{"buffer":0,"byteLength":2392,"byteOffset":2113140,"target":34962},{"buffer":0,"byteLength":2520,"byteOffset":2115532,"target":34963},{"buffer":0,"byteLength":14400,"byteOffset":2118052,"target":34962},{"buffer":0,"byteLength":14400,"byteOffset":2132452,"target":34962},{"buffer":0,"byteLength":9600,"byteOffset":2146852,"target":34962},{"buffer":0,"byteLength":4800,"byteOffset":2156452,"target":34962},{"buffer":0,"byteLength":9600,"byteOffset":2161252,"target":34962},{"buffer":0,"byteLength":5760,"byteOffset":2170852,"target":34963},{"buffer":0,"byteLength":5616,"byteOffset":2176612,"target":34962},{"buffer":0,"byteLength":5616,"byteOffset":2182228,"target":34962},{"buffer":0,"byteLength":3744,"byteOffset":2187844,"target":34962},{"buffer":0,"byteLength":1872,"byteOffset":2191588,"target":34962},{"buffer":0,"byteLength":3744,"byteOffset":2193460,"target":34962},{"buffer":0,"byteLength":4200,"byteOffset":2197204,"target":34963},{"buffer":0,"byteLength":21600,"byteOffset":2201404,"target":34962},{"buffer":0,"byteLength":21600,"byteOffset":2223004,"target":34962},{"buffer":0,"byteLength":14400,"byteOffset":2244604,"target":34962},{"buffer":0,"byteLength":7200,"byteOffset":2259004,"target":34962},{"buffer":0,"byteLength":14400,"byteOffset":2266204,"target":34962},{"buffer":0,"byteLength":8640,"byteOffset":2280604,"target":34963},{"buffer":0,"byteLength":21096,"byteOffset":2289244,"target":34962},{"buffer":0,"byteLength":21096,"byteOffset":2310340,"target":34962},{"buffer":0,"byteLength":14064,"byteOffset":2331436,"target":34962},{"buffer":0,"byteLength":7032,"byteOffset":2345500,"target":34962},{"buffer":0,"byteLength":14064,"byteOffset":2352532,"target":34962},{"buffer":0,"byteLength":14640,"byteOffset":2366596,"target":34963},{"buffer":0,"byteLength":316800,"byteOffset":2381236,"target":34962},{"buffer":0,"byteLength":316800,"byteOffset":2698036,"target":34962},{"buffer":0,"byteLength":211200,"byteOffset":3014836,"target":34962},{"buffer":0,"byteLength":105600,"byteOffset":3226036,"target":34962},{"buffer":0,"byteLength":211200,"byteOffset":3331636,"target":34962},{"buffer":0,"byteLength":21096,"byteOffset":3542836,"target":34962},{"buffer":0,"byteLength":21096,"byteOffset":3563932,"target":34962},{"buffer":0,"byteLength":14064,"byteOffset":3585028,"target":34962},{"buffer":0,"byteLength":7032,"byteOffset":3599092,"target":34962},{"buffer":0,"byteLength":14064,"byteOffset":3606124,"target":34962},{"buffer":0,"byteLength":115200,"byteOffset":3620188,"target":34962},{"buffer":0,"byteLength":115200,"byteOffset":3735388,"target":34962},{"buffer":0,"byteLength":76800,"byteOffset":3850588,"target":34962},{"buffer":0,"byteLength":38400,"byteOffset":3927388,"target":34962},{"buffer":0,"byteLength":76800,"byteOffset":3965788,"target":34962},{"buffer":0,"byteLength":6696,"byteOffset":4042588,"target":34962},{"buffer":0,"byteLength":6696,"byteOffset":4049284,"target":34962},{"buffer":0,"byteLength":4464,"byteOffset":4055980,"target":34962},{"buffer":0,"byteLength":2232,"byteOffset":4060444,"target":34962},{"buffer":0,"byteLength":4464,"byteOffset":4062676,"target":34962},{"buffer":0,"byteLength":5280,"byteOffset":4067140,"target":34963},{"buffer":0,"byteLength":36000,"byteOffset":4072420,"target":34962},{"buffer":0,"byteLength":36000,"byteOffset":4108420,"target":34962},{"buffer":0,"byteLength":24000,"byteOffset":4144420,"target":34962},{"buffer":0,"byteLength":12000,"byteOffset":4168420,"target":34962},{"buffer":0,"byteLength":24000,"byteOffset":4180420,"target":34962},{"buffer":0,"byteLength":3576,"byteOffset":4204420,"target":34962},{"buffer":0,"byteLength":3576,"byteOffset":4207996,"target":34962},{"buffer":0,"byteLength":2384,"byteOffset":4211572,"target":34962},{"buffer":0,"byteLength":1192,"byteOffset":4213956,"target":34962},{"buffer":0,"byteLength":2384,"byteOffset":4215148,"target":34962},{"buffer":0,"byteLength":2514,"byteOffset":4217532,"target":34963},{"buffer":0,"byteLength":14400,"byteOffset":4220048,"target":34962},{"buffer":0,"byteLength":14400,"byteOffset":4234448,"target":34962},{"buffer":0,"byteLength":9600,"byteOffset":4248848,"target":34962},{"buffer":0,"byteLength":4800,"byteOffset":4258448,"target":34962},{"buffer":0,"byteLength":9600,"byteOffset":4263248,"target":34962},{"buffer":0,"byteLength":5616,"byteOffset":4272848,"target":34962},{"buffer":0,"byteLength":5616,"byteOffset":4278464,"target":34962},{"buffer":0,"byteLength":3744,"byteOffset":4284080,"target":34962},{"buffer":0,"byteLength":1872,"byteOffset":4287824,"target":34962},{"buffer":0,"byteLength":3744,"byteOffset":4289696,"target":34962},{"buffer":0,"byteLength":4200,"byteOffset":4293440,"target":34963},{"buffer":0,"byteLength":21600,"byteOffset":4297640,"target":34962},{"buffer":0,"byteLength":21600,"byteOffset":4319240,"target":34962},{"buffer":0,"byteLength":14400,"byteOffset":4340840,"target":34962},{"buffer":0,"byteLength":7200,"byteOffset":4355240,"target":34962},{"buffer":0,"byteLength":14400,"byteOffset":4362440,"target":34962},{"buffer":0,"byteLength":21096,"byteOffset":4376840,"target":34962},{"buffer":0,"byteLength":21096,"byteOffset":4397936,"target":34962},{"buffer":0,"byteLength":14064,"byteOffset":4419032,"target":34962},{"buffer":0,"byteLength":7032,"byteOffset":4433096,"target":34962},{"buffer":0,"byteLength":14064,"byteOffset":4440128,"target":34962},{"buffer":0,"byteLength":14640,"byteOffset":4454192,"target":34963},{"buffer":0,"byteLength":316800,"byteOffset":4468832,"target":34962},{"buffer":0,"byteLength":316800,"byteOffset":4785632,"target":34962},{"buffer":0,"byteLength":211200,"byteOffset":5102432,"target":34962},{"buffer":0,"byteLength":105600,"byteOffset":5313632,"target":34962},{"buffer":0,"byteLength":211200,"byteOffset":5419232,"target":34962},{"buffer":0,"byteLength":21096,"byteOffset":5630432,"target":34962},{"buffer":0,"byteLength":21096,"byteOffset":5651528,"target":34962},{"buffer":0,"byteLength":14064,"byteOffset":5672624,"target":34962},{"buffer":0,"byteLength":7032,"byteOffset":5686688,"target":34962},{"buffer":0,"byteLength":14064,"byteOffset":5693720,"target":34962},{"buffer":0,"byteLength":115200,"byteOffset":5707784,"target":34962},{"buffer":0,"byteLength":115200,"byteOffset":5822984,"target":34962},{"buffer":0,"byteLength":76800,"byteOffset":5938184,"target":34962},{"buffer":0,"byteLength":38400,"byteOffset":6014984,"target":34962},{"buffer":0,"byteLength":76800,"byteOffset":6053384,"target":34962},{"buffer":0,"byteLength":6696,"byteOffset":6130184,"target":34962},{"buffer":0,"byteLength":6696,"byteOffset":6136880,"target":34962},{"buffer":0,"byteLength":4464,"byteOffset":6143576,"target":34962},{"buffer":0,"byteLength":2232,"byteOffset":6148040,"target":34962},{"buffer":0,"byteLength":4464,"byteOffset":6150272,"target":34962},{"buffer":0,"byteLength":5280,"byteOffset":6154736,"target":34963},{"buffer":0,"byteLength":36000,"byteOffset":6160016,"target":34962},{"buffer":0,"byteLength":36000,"byteOffset":6196016,"target":34962},{"buffer":0,"byteLength":24000,"byteOffset":6232016,"target":34962},{"buffer":0,"byteLength":12000,"byteOffset":6256016,"target":34962},{"buffer":0,"byteLength":24000,"byteOffset":6268016,"target":34962},{"buffer":0,"byteLength":3588,"byteOffset":6292016,"target":34962},{"buffer":0,"byteLength":3588,"byteOffset":6295604,"target":34962},{"buffer":0,"byteLength":2392,"byteOffset":6299192,"target":34962},{"buffer":0,"byteLength":1196,"byteOffset":6301584,"target":34962},{"buffer":0,"byteLength":2392,"byteOffset":6302780,"target":34962},{"buffer":0,"byteLength":2520,"byteOffset":6305172,"target":34963},{"buffer":0,"byteLength":14400,"byteOffset":6307692,"target":34962},{"buffer":0,"byteLength":14400,"byteOffset":6322092,"target":34962},{"buffer":0,"byteLength":9600,"byteOffset":6336492,"target":34962},{"buffer":0,"byteLength":4800,"byteOffset":6346092,"target":34962},{"buffer":0,"byteLength":9600,"byteOffset":6350892,"target":34962},{"buffer":0,"byteLength":5616,"byteOffset":6360492,"target":34962},{"buffer":0,"byteLength":5616,"byteOffset":6366108,"target":34962},{"buffer":0,"byteLength":3744,"byteOffset":6371724,"target":34962},{"buffer":0,"byteLength":1872,"byteOffset":6375468,"target":34962},{"buffer":0,"byteLength":3744,"byteOffset":6377340,"target":34962},{"buffer":0,"byteLength":4200,"byteOffset":6381084,"target":34963},{"buffer":0,"byteLength":21600,"byteOffset":6385284,"target":34962},{"buffer":0,"byteLength":21600,"byteOffset":6406884,"target":34962},{"buffer":0,"byteLength":14400,"byteOffset":6428484,"target":34962},{"buffer":0,"byteLength":7200,"byteOffset":6442884,"target":34962},{"buffer":0,"byteLength":14400,"byteOffset":6450084,"target":34962}],"samplers":[{"magFilter":9729,"minFilter":9987}],"buffers":[{"byteLength":6464484,"uri":"oak.bin"}]}